# xmcd
#
# Track frame offsets:
#	150
#	14510
#	30396
#	49819
#	71096
#	87741
#	106885
#	125011
#	142289
#	144380
#	162223
#	182067
#	192102
#	215734
#	232536
#	253658
#	265417
#	281779
#
# Disc length: 4008 seconds
#
# Revision: 0
# Processed by: cddbd v1.5.1PL0 Copyright (c) Steve Scherf et al.
# Submitted via: audiograbber 1.83.01
#
DISCID=130fa612
DTITLE=Die Zöllner - Good bye, Cherie - Cafe Größenwahn
DYEAR=1990
DGENRE=Blues
TTITLE0=Arschgesicht
TTITLE1=kleine Rebellion
TTITLE2=good bye, cherie
TTITLE3=allein
TTITLE4=das letzte Lied (Carolyn)
TTITLE5=morgen biste tot
TTITLE6=Dreigroschenballade
TTITLE7=laß` mich für immer hier
TTITLE8=lustiges Zappen
TTITLE9=lustige Puppen
TTITLE10=Heimweh
TTITLE11=Kinderlied
TTITLE12=Wiederseh`n
TTITLE13=Cafe Größenwahn
TTITLE14=viel zu weit
TTITLE15=Käfer auf dem Blatt
TTITLE16=was is
TTITLE17=Hose `runter
EXTD=Titel 1 - 13 von Good bye, Cherie (1997]\nTitel 14 - 18 von Cafe Größenwah
EXTD=n (1990)
EXTT0=
EXTT1=
EXTT2=
EXTT3=
EXTT4=
EXTT5=
EXTT6=
EXTT7=
EXTT8=
EXTT9=
EXTT10=
EXTT11=
EXTT12=
EXTT13=
EXTT14=
EXTT15=
EXTT16=
EXTT17=
PLAYORDER=
